<?xml version="1.0" encoding="UTF-8" standalone="no"?>
<!DOCTYPE svg PUBLIC "-//W3C//DTD SVG 1.1//EN" "http://www.w3.org/Graphics/SVG/1.1/DTD/svg11.dtd">
<!-- Microsoft Visio, SVG Export에서 생성되었습니다. node_hierachy.svg 페이지-1 -->
<svg xmlns="http://www.w3.org/2000/svg" xmlns:xlink="http://www.w3.org/1999/xlink" xmlns:ev="http://www.w3.org/2001/xml-events"
		xmlns:v="http://schemas.microsoft.com/visio/2003/SVGExtensions/" width="7.88443in" height="5.7773in"
		viewBox="0 0 567.679 415.966" xml:space="preserve" color-interpolation-filters="sRGB" class="st10">
	<v:documentProperties v:langID="1042" v:metric="true" v:viewMarkup="false"/>

	<style type="text/css">
	<![CDATA[
		.st1 {fill:#ffffff;stroke:#000000;stroke-linecap:round;stroke-linejoin:round;stroke-width:0.24}
		.st2 {fill:#000000;font-family:맑은 고딕;font-size:0.833336em}
		.st3 {marker-end:url(#mrkr5-21);stroke:#000000;stroke-linecap:round;stroke-linejoin:round;stroke-width:0.75}
		.st4 {fill:#000000;fill-opacity:1;stroke:#000000;stroke-opacity:1;stroke-width:0.22935779816514}
		.st5 {stroke:#000000;stroke-linecap:round;stroke-linejoin:round;stroke-width:0.75}
		.st6 {stroke:#000000;stroke-dasharray:5.25,3.75;stroke-linecap:round;stroke-linejoin:round;stroke-width:0.75}
		.st7 {stroke:#000000;stroke-linecap:round;stroke-linejoin:round;stroke-width:0.24}
		.st8 {fill:none;stroke:none;stroke-linecap:round;stroke-linejoin:round;stroke-width:0.75}
		.st9 {fill:#000000;font-family:맑은 고딕;font-size:1.00001em}
		.st10 {fill:none;fill-rule:evenodd;font-size:12px;overflow:visible;stroke-linecap:square;stroke-miterlimit:3}
	]]>
	</style>

	<defs id="Markers">
		<g id="lend5">
			<path d="M 2 1 L 0 0 L 1.98117 -0.993387 C 1.67173 -0.364515 1.67301 0.372641 1.98465 1.00043 " style="stroke:none"/>
		</g>
		<marker id="mrkr5-21" class="st4" v:arrowType="5" v:arrowSize="2" v:setback="7.63" refX="-7.63" orient="auto"
				markerUnits="strokeWidth" overflow="visible">
			<use xlink:href="#lend5" transform="scale(-4.36,-4.36) "/>
		</marker>
	</defs>
	<g v:mID="0" v:index="1" v:groupContext="foregroundPage">
		<title>페이지-1</title>
		<v:pageProperties v:drawingScale="0.0393701" v:pageScale="0.0393701" v:drawingUnits="24" v:shadowOffsetX="8.50394"
				v:shadowOffsetY="-8.50394"/>
		<v:layer v:name="연결선" v:index="0"/>
		<g id="shape9-1" v:mID="9" v:groupContext="shape" transform="translate(14.5482,-298.013)">
			<title>모서리가 둥근 직사각형</title>
			<desc>Node</desc>
			<v:userDefs>
				<v:ud v:nameU="CTypeTopLeftSnip" v:prompt="" v:val="VT0(0):5"/>
				<v:ud v:nameU="CTypeTopRightSnip" v:prompt="" v:val="VT0(0):5"/>
				<v:ud v:nameU="CTypeBotLeftSnip" v:prompt="" v:val="VT0(0):5"/>
				<v:ud v:nameU="CTypeBotRightSnip" v:prompt="" v:val="VT0(0):5"/>
				<v:ud v:nameU="CornerLockHoriz" v:prompt="" v:val="VT0(1):5"/>
				<v:ud v:nameU="CornerLockVert" v:prompt="" v:val="VT0(1):5"/>
				<v:ud v:nameU="CornerLockDiag" v:prompt="" v:val="VT0(0):5"/>
				<v:ud v:nameU="TopLeftOffset" v:prompt="" v:val="VT0(0.15748031496063):24"/>
				<v:ud v:nameU="TopRightOffset" v:prompt="" v:val="VT0(0.15748031496063):24"/>
				<v:ud v:nameU="BotLeftOffset" v:prompt="" v:val="VT0(0.15748031496063):24"/>
				<v:ud v:nameU="BotRightOffset" v:prompt="" v:val="VT0(0.15748031496063):24"/>
				<v:ud v:nameU="visVersion" v:prompt="" v:val="VT0(15):26"/>
				<v:ud v:nameU="TopLeftOffset" v:prompt="" v:val="VT0(0.11811023622047):1"/>
				<v:ud v:nameU="TopRightOffset" v:prompt="" v:val="VT0(0.11811023622047):1"/>
				<v:ud v:nameU="BotLeftOffset" v:prompt="" v:val="VT0(0.11811023622047):1"/>
				<v:ud v:nameU="BotRightOffset" v:prompt="" v:val="VT0(0.11811023622047):1"/>
			</v:userDefs>
			<v:textBlock v:margins="rect(4,4,4,4)" v:tabSpace="42.5197"/>
			<v:textRect cx="42.5197" cy="401.792" width="85.04" height="28.3465"/>
			<path d="M8.5 415.97 L76.54 415.97 A8.5038 8.5038 -180 0 0 85.04 407.46 L85.04 396.12 A8.5038 8.5038 -180 0 0 76.54 387.62
						 L8.5 387.62 A8.5038 8.5038 -180 0 0 0 396.12 L0 407.46 A8.5038 8.5038 -180 0 0 8.5 415.97 Z" class="st1"/>
			<text x="30.01" y="404.79" class="st2" v:langID="1042"><v:paragraph v:horizAlign="1"/><v:tabList/>Node</text>		</g>
		<g id="shape10-4" v:mID="10" v:groupContext="shape" transform="translate(127.934,-298.013)">
			<title>모서리가 둥근 직사각형.10</title>
			<desc>ActiveNode</desc>
			<v:userDefs>
				<v:ud v:nameU="CTypeTopLeftSnip" v:prompt="" v:val="VT0(0):5"/>
				<v:ud v:nameU="CTypeTopRightSnip" v:prompt="" v:val="VT0(0):5"/>
				<v:ud v:nameU="CTypeBotLeftSnip" v:prompt="" v:val="VT0(0):5"/>
				<v:ud v:nameU="CTypeBotRightSnip" v:prompt="" v:val="VT0(0):5"/>
				<v:ud v:nameU="CornerLockHoriz" v:prompt="" v:val="VT0(1):5"/>
				<v:ud v:nameU="CornerLockVert" v:prompt="" v:val="VT0(1):5"/>
				<v:ud v:nameU="CornerLockDiag" v:prompt="" v:val="VT0(0):5"/>
				<v:ud v:nameU="TopLeftOffset" v:prompt="" v:val="VT0(0.15748031496063):24"/>
				<v:ud v:nameU="TopRightOffset" v:prompt="" v:val="VT0(0.15748031496063):24"/>
				<v:ud v:nameU="BotLeftOffset" v:prompt="" v:val="VT0(0.15748031496063):24"/>
				<v:ud v:nameU="BotRightOffset" v:prompt="" v:val="VT0(0.15748031496063):24"/>
				<v:ud v:nameU="visVersion" v:prompt="" v:val="VT0(15):26"/>
				<v:ud v:nameU="TopLeftOffset" v:prompt="" v:val="VT0(0.11811023622047):1"/>
				<v:ud v:nameU="TopRightOffset" v:prompt="" v:val="VT0(0.11811023622047):1"/>
				<v:ud v:nameU="BotLeftOffset" v:prompt="" v:val="VT0(0.11811023622047):1"/>
				<v:ud v:nameU="BotRightOffset" v:prompt="" v:val="VT0(0.11811023622047):1"/>
			</v:userDefs>
			<v:textBlock v:margins="rect(4,4,4,4)" v:tabSpace="42.5197"/>
			<v:textRect cx="42.5197" cy="401.792" width="85.04" height="28.3465"/>
			<path d="M8.5 415.97 L76.54 415.97 A8.5038 8.5038 -180 0 0 85.04 407.46 L85.04 396.12 A8.5038 8.5038 -180 0 0 76.54 387.62
						 L8.5 387.62 A8.5038 8.5038 -180 0 0 0 396.12 L0 407.46 A8.5038 8.5038 -180 0 0 8.5 415.97 Z" class="st1"/>
			<text x="16.29" y="404.79" class="st2" v:langID="1042"><v:paragraph v:horizAlign="1"/><v:tabList/>ActiveNode</text>		</g>
		<g id="shape11-7" v:mID="11" v:groupContext="shape" transform="translate(241.32,-298.013)">
			<title>모서리가 둥근 직사각형.11</title>
			<desc>InOutNode</desc>
			<v:userDefs>
				<v:ud v:nameU="CTypeTopLeftSnip" v:prompt="" v:val="VT0(0):5"/>
				<v:ud v:nameU="CTypeTopRightSnip" v:prompt="" v:val="VT0(0):5"/>
				<v:ud v:nameU="CTypeBotLeftSnip" v:prompt="" v:val="VT0(0):5"/>
				<v:ud v:nameU="CTypeBotRightSnip" v:prompt="" v:val="VT0(0):5"/>
				<v:ud v:nameU="CornerLockHoriz" v:prompt="" v:val="VT0(1):5"/>
				<v:ud v:nameU="CornerLockVert" v:prompt="" v:val="VT0(1):5"/>
				<v:ud v:nameU="CornerLockDiag" v:prompt="" v:val="VT0(0):5"/>
				<v:ud v:nameU="TopLeftOffset" v:prompt="" v:val="VT0(0.15748031496063):24"/>
				<v:ud v:nameU="TopRightOffset" v:prompt="" v:val="VT0(0.15748031496063):24"/>
				<v:ud v:nameU="BotLeftOffset" v:prompt="" v:val="VT0(0.15748031496063):24"/>
				<v:ud v:nameU="BotRightOffset" v:prompt="" v:val="VT0(0.15748031496063):24"/>
				<v:ud v:nameU="visVersion" v:prompt="" v:val="VT0(15):26"/>
				<v:ud v:nameU="TopLeftOffset" v:prompt="" v:val="VT0(0.11811023622047):1"/>
				<v:ud v:nameU="TopRightOffset" v:prompt="" v:val="VT0(0.11811023622047):1"/>
				<v:ud v:nameU="BotLeftOffset" v:prompt="" v:val="VT0(0.11811023622047):1"/>
				<v:ud v:nameU="BotRightOffset" v:prompt="" v:val="VT0(0.11811023622047):1"/>
			</v:userDefs>
			<v:textBlock v:margins="rect(4,4,4,4)" v:tabSpace="42.5197"/>
			<v:textRect cx="42.5197" cy="401.792" width="85.04" height="28.3465"/>
			<path d="M8.5 415.97 L76.54 415.97 A8.5038 8.5038 -180 0 0 85.04 407.46 L85.04 396.12 A8.5038 8.5038 -180 0 0 76.54 387.62
						 L8.5 387.62 A8.5038 8.5038 -180 0 0 0 396.12 L0 407.46 A8.5038 8.5038 -180 0 0 8.5 415.97 Z" class="st1"/>
			<text x="17.29" y="404.79" class="st2" v:langID="1042"><v:paragraph v:horizAlign="1"/><v:tabList/>InOutNode</text>		</g>
		<g id="shape12-10" v:mID="12" v:groupContext="shape" transform="translate(354.706,-298.013)">
			<title>모서리가 둥근 직사각형.12</title>
			<desc>InNode</desc>
			<v:userDefs>
				<v:ud v:nameU="CTypeTopLeftSnip" v:prompt="" v:val="VT0(0):5"/>
				<v:ud v:nameU="CTypeTopRightSnip" v:prompt="" v:val="VT0(0):5"/>
				<v:ud v:nameU="CTypeBotLeftSnip" v:prompt="" v:val="VT0(0):5"/>
				<v:ud v:nameU="CTypeBotRightSnip" v:prompt="" v:val="VT0(0):5"/>
				<v:ud v:nameU="CornerLockHoriz" v:prompt="" v:val="VT0(1):5"/>
				<v:ud v:nameU="CornerLockVert" v:prompt="" v:val="VT0(1):5"/>
				<v:ud v:nameU="CornerLockDiag" v:prompt="" v:val="VT0(0):5"/>
				<v:ud v:nameU="TopLeftOffset" v:prompt="" v:val="VT0(0.15748031496063):24"/>
				<v:ud v:nameU="TopRightOffset" v:prompt="" v:val="VT0(0.15748031496063):24"/>
				<v:ud v:nameU="BotLeftOffset" v:prompt="" v:val="VT0(0.15748031496063):24"/>
				<v:ud v:nameU="BotRightOffset" v:prompt="" v:val="VT0(0.15748031496063):24"/>
				<v:ud v:nameU="visVersion" v:prompt="" v:val="VT0(15):26"/>
				<v:ud v:nameU="TopLeftOffset" v:prompt="" v:val="VT0(0.11811023622047):1"/>
				<v:ud v:nameU="TopRightOffset" v:prompt="" v:val="VT0(0.11811023622047):1"/>
				<v:ud v:nameU="BotLeftOffset" v:prompt="" v:val="VT0(0.11811023622047):1"/>
				<v:ud v:nameU="BotRightOffset" v:prompt="" v:val="VT0(0.11811023622047):1"/>
			</v:userDefs>
			<v:textBlock v:margins="rect(4,4,4,4)" v:tabSpace="42.5197"/>
			<v:textRect cx="42.5197" cy="401.792" width="85.04" height="28.3465"/>
			<path d="M8.5 415.97 L76.54 415.97 A8.5038 8.5038 -180 0 0 85.04 407.46 L85.04 396.12 A8.5038 8.5038 -180 0 0 76.54 387.62
						 L8.5 387.62 A8.5038 8.5038 -180 0 0 0 396.12 L0 407.46 A8.5038 8.5038 -180 0 0 8.5 415.97 Z" class="st1"/>
			<text x="25.77" y="404.79" class="st2" v:langID="1042"><v:paragraph v:horizAlign="1"/><v:tabList/>InNode</text>		</g>
		<g id="shape13-13" v:mID="13" v:groupContext="shape" transform="translate(354.706,-212.973)">
			<title>모서리가 둥근 직사각형.13</title>
			<desc>OutNode</desc>
			<v:userDefs>
				<v:ud v:nameU="CTypeTopLeftSnip" v:prompt="" v:val="VT0(0):5"/>
				<v:ud v:nameU="CTypeTopRightSnip" v:prompt="" v:val="VT0(0):5"/>
				<v:ud v:nameU="CTypeBotLeftSnip" v:prompt="" v:val="VT0(0):5"/>
				<v:ud v:nameU="CTypeBotRightSnip" v:prompt="" v:val="VT0(0):5"/>
				<v:ud v:nameU="CornerLockHoriz" v:prompt="" v:val="VT0(1):5"/>
				<v:ud v:nameU="CornerLockVert" v:prompt="" v:val="VT0(1):5"/>
				<v:ud v:nameU="CornerLockDiag" v:prompt="" v:val="VT0(0):5"/>
				<v:ud v:nameU="TopLeftOffset" v:prompt="" v:val="VT0(0.15748031496063):24"/>
				<v:ud v:nameU="TopRightOffset" v:prompt="" v:val="VT0(0.15748031496063):24"/>
				<v:ud v:nameU="BotLeftOffset" v:prompt="" v:val="VT0(0.15748031496063):24"/>
				<v:ud v:nameU="BotRightOffset" v:prompt="" v:val="VT0(0.15748031496063):24"/>
				<v:ud v:nameU="visVersion" v:prompt="" v:val="VT0(15):26"/>
				<v:ud v:nameU="TopLeftOffset" v:prompt="" v:val="VT0(0.11811023622047):1"/>
				<v:ud v:nameU="TopRightOffset" v:prompt="" v:val="VT0(0.11811023622047):1"/>
				<v:ud v:nameU="BotLeftOffset" v:prompt="" v:val="VT0(0.11811023622047):1"/>
				<v:ud v:nameU="BotRightOffset" v:prompt="" v:val="VT0(0.11811023622047):1"/>
			</v:userDefs>
			<v:textBlock v:margins="rect(4,4,4,4)" v:tabSpace="42.5197"/>
			<v:textRect cx="42.5197" cy="401.792" width="85.04" height="28.3465"/>
			<path d="M8.5 415.97 L76.54 415.97 A8.5038 8.5038 -180 0 0 85.04 407.46 L85.04 396.12 A8.5038 8.5038 -180 0 0 76.54 387.62
						 L8.5 387.62 A8.5038 8.5038 -180 0 0 0 396.12 L0 407.46 A8.5038 8.5038 -180 0 0 8.5 415.97 Z" class="st1"/>
			<text x="21.53" y="404.79" class="st2" v:langID="1042"><v:paragraph v:horizAlign="1"/><v:tabList/>OutNode</text>		</g>
		<g id="shape14-16" v:mID="14" v:groupContext="shape" v:layerMember="0" transform="translate(127.934,-305.099)">
			<title>동적 연결선</title>
			<path d="M0 408.88 L-22.62 408.88" class="st3"/>
		</g>
		<g id="shape15-22" v:mID="15" v:groupContext="shape" v:layerMember="0" transform="translate(241.32,-305.099)">
			<title>동적 연결선.15</title>
			<path d="M0 408.88 L-22.62 408.88" class="st3"/>
		</g>
		<g id="shape16-27" v:mID="16" v:groupContext="shape" v:layerMember="0" transform="translate(354.706,-227.147)">
			<title>동적 연결선.16</title>
			<path d="M0 415.97 L-14.17 415.97 L-14.17 330.93 L-22.62 330.93" class="st3"/>
		</g>
		<g id="shape17-32" v:mID="17" v:groupContext="shape" v:layerMember="0" transform="translate(354.706,-305.099)">
			<title>동적 연결선.17</title>
			<path d="M0 408.88 L-22.62 408.88" class="st3"/>
		</g>
		<g id="shape19-37" v:mID="19" v:groupContext="shape" transform="translate(468.092,-298.013)">
			<title>모서리가 둥근 직사각형.19</title>
			<desc>TerminalIn</desc>
			<v:userDefs>
				<v:ud v:nameU="CTypeTopLeftSnip" v:prompt="" v:val="VT0(0):5"/>
				<v:ud v:nameU="CTypeTopRightSnip" v:prompt="" v:val="VT0(0):5"/>
				<v:ud v:nameU="CTypeBotLeftSnip" v:prompt="" v:val="VT0(0):5"/>
				<v:ud v:nameU="CTypeBotRightSnip" v:prompt="" v:val="VT0(0):5"/>
				<v:ud v:nameU="CornerLockHoriz" v:prompt="" v:val="VT0(1):5"/>
				<v:ud v:nameU="CornerLockVert" v:prompt="" v:val="VT0(1):5"/>
				<v:ud v:nameU="CornerLockDiag" v:prompt="" v:val="VT0(0):5"/>
				<v:ud v:nameU="TopLeftOffset" v:prompt="" v:val="VT0(0.15748031496063):24"/>
				<v:ud v:nameU="TopRightOffset" v:prompt="" v:val="VT0(0.15748031496063):24"/>
				<v:ud v:nameU="BotLeftOffset" v:prompt="" v:val="VT0(0.15748031496063):24"/>
				<v:ud v:nameU="BotRightOffset" v:prompt="" v:val="VT0(0.15748031496063):24"/>
				<v:ud v:nameU="visVersion" v:prompt="" v:val="VT0(15):26"/>
				<v:ud v:nameU="TopLeftOffset" v:prompt="" v:val="VT0(0.11811023622047):1"/>
				<v:ud v:nameU="TopRightOffset" v:prompt="" v:val="VT0(0.11811023622047):1"/>
				<v:ud v:nameU="BotLeftOffset" v:prompt="" v:val="VT0(0.11811023622047):1"/>
				<v:ud v:nameU="BotRightOffset" v:prompt="" v:val="VT0(0.11811023622047):1"/>
			</v:userDefs>
			<v:textBlock v:margins="rect(4,4,4,4)" v:tabSpace="42.5197"/>
			<v:textRect cx="42.5197" cy="401.792" width="85.04" height="28.3465"/>
			<path d="M8.5 415.97 L76.54 415.97 A8.5038 8.5038 -180 0 0 85.04 407.46 L85.04 396.12 A8.5038 8.5038 -180 0 0 76.54 387.62
						 L8.5 387.62 A8.5038 8.5038 -180 0 0 0 396.12 L0 407.46 A8.5038 8.5038 -180 0 0 8.5 415.97 Z" class="st1"/>
			<text x="18.82" y="404.79" class="st2" v:langID="1042"><v:paragraph v:horizAlign="1"/><v:tabList/>TerminalIn</text>		</g>
		<g id="shape20-40" v:mID="20" v:groupContext="shape" transform="translate(468.092,-255.493)">
			<title>모서리가 둥근 직사각형.20</title>
			<desc>Ticker</desc>
			<v:userDefs>
				<v:ud v:nameU="CTypeTopLeftSnip" v:prompt="" v:val="VT0(0):5"/>
				<v:ud v:nameU="CTypeTopRightSnip" v:prompt="" v:val="VT0(0):5"/>
				<v:ud v:nameU="CTypeBotLeftSnip" v:prompt="" v:val="VT0(0):5"/>
				<v:ud v:nameU="CTypeBotRightSnip" v:prompt="" v:val="VT0(0):5"/>
				<v:ud v:nameU="CornerLockHoriz" v:prompt="" v:val="VT0(1):5"/>
				<v:ud v:nameU="CornerLockVert" v:prompt="" v:val="VT0(1):5"/>
				<v:ud v:nameU="CornerLockDiag" v:prompt="" v:val="VT0(0):5"/>
				<v:ud v:nameU="TopLeftOffset" v:prompt="" v:val="VT0(0.15748031496063):24"/>
				<v:ud v:nameU="TopRightOffset" v:prompt="" v:val="VT0(0.15748031496063):24"/>
				<v:ud v:nameU="BotLeftOffset" v:prompt="" v:val="VT0(0.15748031496063):24"/>
				<v:ud v:nameU="BotRightOffset" v:prompt="" v:val="VT0(0.15748031496063):24"/>
				<v:ud v:nameU="visVersion" v:prompt="" v:val="VT0(15):26"/>
				<v:ud v:nameU="TopLeftOffset" v:prompt="" v:val="VT0(0.11811023622047):1"/>
				<v:ud v:nameU="TopRightOffset" v:prompt="" v:val="VT0(0.11811023622047):1"/>
				<v:ud v:nameU="BotLeftOffset" v:prompt="" v:val="VT0(0.11811023622047):1"/>
				<v:ud v:nameU="BotRightOffset" v:prompt="" v:val="VT0(0.11811023622047):1"/>
			</v:userDefs>
			<v:textBlock v:margins="rect(4,4,4,4)" v:tabSpace="42.5197"/>
			<v:textRect cx="42.5197" cy="401.792" width="85.04" height="28.3465"/>
			<path d="M8.5 415.97 L76.54 415.97 A8.5038 8.5038 -180 0 0 85.04 407.46 L85.04 396.12 A8.5038 8.5038 -180 0 0 76.54 387.62
						 L8.5 387.62 A8.5038 8.5038 -180 0 0 0 396.12 L0 407.46 A8.5038 8.5038 -180 0 0 8.5 415.97 Z" class="st1"/>
			<text x="29.28" y="404.79" class="st2" v:langID="1042"><v:paragraph v:horizAlign="1"/><v:tabList/>Ticker</text>		</g>
		<g id="shape21-43" v:mID="21" v:groupContext="shape" transform="translate(468.092,-212.973)">
			<title>모서리가 둥근 직사각형.21</title>
			<desc>TerminalOut</desc>
			<v:userDefs>
				<v:ud v:nameU="CTypeTopLeftSnip" v:prompt="" v:val="VT0(0):5"/>
				<v:ud v:nameU="CTypeTopRightSnip" v:prompt="" v:val="VT0(0):5"/>
				<v:ud v:nameU="CTypeBotLeftSnip" v:prompt="" v:val="VT0(0):5"/>
				<v:ud v:nameU="CTypeBotRightSnip" v:prompt="" v:val="VT0(0):5"/>
				<v:ud v:nameU="CornerLockHoriz" v:prompt="" v:val="VT0(1):5"/>
				<v:ud v:nameU="CornerLockVert" v:prompt="" v:val="VT0(1):5"/>
				<v:ud v:nameU="CornerLockDiag" v:prompt="" v:val="VT0(0):5"/>
				<v:ud v:nameU="TopLeftOffset" v:prompt="" v:val="VT0(0.15748031496063):24"/>
				<v:ud v:nameU="TopRightOffset" v:prompt="" v:val="VT0(0.15748031496063):24"/>
				<v:ud v:nameU="BotLeftOffset" v:prompt="" v:val="VT0(0.15748031496063):24"/>
				<v:ud v:nameU="BotRightOffset" v:prompt="" v:val="VT0(0.15748031496063):24"/>
				<v:ud v:nameU="visVersion" v:prompt="" v:val="VT0(15):26"/>
				<v:ud v:nameU="TopLeftOffset" v:prompt="" v:val="VT0(0.11811023622047):1"/>
				<v:ud v:nameU="TopRightOffset" v:prompt="" v:val="VT0(0.11811023622047):1"/>
				<v:ud v:nameU="BotLeftOffset" v:prompt="" v:val="VT0(0.11811023622047):1"/>
				<v:ud v:nameU="BotRightOffset" v:prompt="" v:val="VT0(0.11811023622047):1"/>
			</v:userDefs>
			<v:textBlock v:margins="rect(4,4,4,4)" v:tabSpace="42.5197"/>
			<v:textRect cx="42.5197" cy="401.792" width="85.04" height="28.3465"/>
			<path d="M8.5 415.97 L76.54 415.97 A8.5038 8.5038 -180 0 0 85.04 407.46 L85.04 396.12 A8.5038 8.5038 -180 0 0 76.54 387.62
						 L8.5 387.62 A8.5038 8.5038 -180 0 0 0 396.12 L0 407.46 A8.5038 8.5038 -180 0 0 8.5 415.97 Z" class="st1"/>
			<text x="14.58" y="404.79" class="st2" v:langID="1042"><v:paragraph v:horizAlign="1"/><v:tabList/>TerminalOut</text>		</g>
		<g id="shape23-46" v:mID="23" v:groupContext="shape" transform="translate(468.092,-156.281)">
			<title>모서리가 둥근 직사각형.23</title>
			<desc>Add</desc>
			<v:userDefs>
				<v:ud v:nameU="CTypeTopLeftSnip" v:prompt="" v:val="VT0(0):5"/>
				<v:ud v:nameU="CTypeTopRightSnip" v:prompt="" v:val="VT0(0):5"/>
				<v:ud v:nameU="CTypeBotLeftSnip" v:prompt="" v:val="VT0(0):5"/>
				<v:ud v:nameU="CTypeBotRightSnip" v:prompt="" v:val="VT0(0):5"/>
				<v:ud v:nameU="CornerLockHoriz" v:prompt="" v:val="VT0(1):5"/>
				<v:ud v:nameU="CornerLockVert" v:prompt="" v:val="VT0(1):5"/>
				<v:ud v:nameU="CornerLockDiag" v:prompt="" v:val="VT0(0):5"/>
				<v:ud v:nameU="TopLeftOffset" v:prompt="" v:val="VT0(0.15748031496063):24"/>
				<v:ud v:nameU="TopRightOffset" v:prompt="" v:val="VT0(0.15748031496063):24"/>
				<v:ud v:nameU="BotLeftOffset" v:prompt="" v:val="VT0(0.15748031496063):24"/>
				<v:ud v:nameU="BotRightOffset" v:prompt="" v:val="VT0(0.15748031496063):24"/>
				<v:ud v:nameU="visVersion" v:prompt="" v:val="VT0(15):26"/>
				<v:ud v:nameU="TopLeftOffset" v:prompt="" v:val="VT0(0.11811023622047):1"/>
				<v:ud v:nameU="TopRightOffset" v:prompt="" v:val="VT0(0.11811023622047):1"/>
				<v:ud v:nameU="BotLeftOffset" v:prompt="" v:val="VT0(0.11811023622047):1"/>
				<v:ud v:nameU="BotRightOffset" v:prompt="" v:val="VT0(0.11811023622047):1"/>
			</v:userDefs>
			<v:textBlock v:margins="rect(4,4,4,4)" v:tabSpace="42.5197"/>
			<v:textRect cx="42.5197" cy="401.792" width="85.04" height="28.3465"/>
			<path d="M8.5 415.97 L76.54 415.97 A8.5038 8.5038 -180 0 0 85.04 407.46 L85.04 396.12 A8.5038 8.5038 -180 0 0 76.54 387.62
						 L8.5 387.62 A8.5038 8.5038 -180 0 0 0 396.12 L0 407.46 A8.5038 8.5038 -180 0 0 8.5 415.97 Z" class="st1"/>
			<text x="33.21" y="404.79" class="st2" v:langID="1042"><v:paragraph v:horizAlign="1"/><v:tabList/>Add</text>		</g>
		<g id="shape38-49" v:mID="38" v:groupContext="shape" transform="translate(468.092,-113.761)">
			<title>모서리가 둥근 직사각형.38</title>
			<desc>Subtract</desc>
			<v:userDefs>
				<v:ud v:nameU="CTypeTopLeftSnip" v:prompt="" v:val="VT0(0):5"/>
				<v:ud v:nameU="CTypeTopRightSnip" v:prompt="" v:val="VT0(0):5"/>
				<v:ud v:nameU="CTypeBotLeftSnip" v:prompt="" v:val="VT0(0):5"/>
				<v:ud v:nameU="CTypeBotRightSnip" v:prompt="" v:val="VT0(0):5"/>
				<v:ud v:nameU="CornerLockHoriz" v:prompt="" v:val="VT0(1):5"/>
				<v:ud v:nameU="CornerLockVert" v:prompt="" v:val="VT0(1):5"/>
				<v:ud v:nameU="CornerLockDiag" v:prompt="" v:val="VT0(0):5"/>
				<v:ud v:nameU="TopLeftOffset" v:prompt="" v:val="VT0(0.15748031496063):24"/>
				<v:ud v:nameU="TopRightOffset" v:prompt="" v:val="VT0(0.15748031496063):24"/>
				<v:ud v:nameU="BotLeftOffset" v:prompt="" v:val="VT0(0.15748031496063):24"/>
				<v:ud v:nameU="BotRightOffset" v:prompt="" v:val="VT0(0.15748031496063):24"/>
				<v:ud v:nameU="visVersion" v:prompt="" v:val="VT0(15):26"/>
				<v:ud v:nameU="TopLeftOffset" v:prompt="" v:val="VT0(0.11811023622047):1"/>
				<v:ud v:nameU="TopRightOffset" v:prompt="" v:val="VT0(0.11811023622047):1"/>
				<v:ud v:nameU="BotLeftOffset" v:prompt="" v:val="VT0(0.11811023622047):1"/>
				<v:ud v:nameU="BotRightOffset" v:prompt="" v:val="VT0(0.11811023622047):1"/>
			</v:userDefs>
			<v:textBlock v:margins="rect(4,4,4,4)" v:tabSpace="42.5197"/>
			<v:textRect cx="42.5197" cy="401.792" width="85.04" height="28.3465"/>
			<path d="M8.5 415.97 L76.54 415.97 A8.5038 8.5038 -180 0 0 85.04 407.46 L85.04 396.12 A8.5038 8.5038 -180 0 0 76.54 387.62
						 L8.5 387.62 A8.5038 8.5038 -180 0 0 0 396.12 L0 407.46 A8.5038 8.5038 -180 0 0 8.5 415.97 Z" class="st1"/>
			<text x="23.73" y="404.79" class="st2" v:langID="1042"><v:paragraph v:horizAlign="1"/><v:tabList/>Subtract</text>		</g>
		<g id="shape54-52" v:mID="54" v:groupContext="shape" transform="translate(468.092,-71.2411)">
			<title>모서리가 둥근 직사각형.54</title>
			<desc>Multiply</desc>
			<v:userDefs>
				<v:ud v:nameU="CTypeTopLeftSnip" v:prompt="" v:val="VT0(0):5"/>
				<v:ud v:nameU="CTypeTopRightSnip" v:prompt="" v:val="VT0(0):5"/>
				<v:ud v:nameU="CTypeBotLeftSnip" v:prompt="" v:val="VT0(0):5"/>
				<v:ud v:nameU="CTypeBotRightSnip" v:prompt="" v:val="VT0(0):5"/>
				<v:ud v:nameU="CornerLockHoriz" v:prompt="" v:val="VT0(1):5"/>
				<v:ud v:nameU="CornerLockVert" v:prompt="" v:val="VT0(1):5"/>
				<v:ud v:nameU="CornerLockDiag" v:prompt="" v:val="VT0(0):5"/>
				<v:ud v:nameU="TopLeftOffset" v:prompt="" v:val="VT0(0.15748031496063):24"/>
				<v:ud v:nameU="TopRightOffset" v:prompt="" v:val="VT0(0.15748031496063):24"/>
				<v:ud v:nameU="BotLeftOffset" v:prompt="" v:val="VT0(0.15748031496063):24"/>
				<v:ud v:nameU="BotRightOffset" v:prompt="" v:val="VT0(0.15748031496063):24"/>
				<v:ud v:nameU="visVersion" v:prompt="" v:val="VT0(15):26"/>
				<v:ud v:nameU="TopLeftOffset" v:prompt="" v:val="VT0(0.11811023622047):1"/>
				<v:ud v:nameU="TopRightOffset" v:prompt="" v:val="VT0(0.11811023622047):1"/>
				<v:ud v:nameU="BotLeftOffset" v:prompt="" v:val="VT0(0.11811023622047):1"/>
				<v:ud v:nameU="BotRightOffset" v:prompt="" v:val="VT0(0.11811023622047):1"/>
			</v:userDefs>
			<v:textBlock v:margins="rect(4,4,4,4)" v:tabSpace="42.5197"/>
			<v:textRect cx="42.5197" cy="401.792" width="85.04" height="28.3465"/>
			<path d="M8.5 415.97 L76.54 415.97 A8.5038 8.5038 -180 0 0 85.04 407.46 L85.04 396.12 A8.5038 8.5038 -180 0 0 76.54 387.62
						 L8.5 387.62 A8.5038 8.5038 -180 0 0 0 396.12 L0 407.46 A8.5038 8.5038 -180 0 0 8.5 415.97 Z" class="st1"/>
			<text x="24.16" y="404.79" class="st2" v:langID="1042"><v:paragraph v:horizAlign="1"/><v:tabList/>Multiply</text>		</g>
		<g id="shape55-55" v:mID="55" v:groupContext="shape" transform="translate(468.092,-28.7215)">
			<title>모서리가 둥근 직사각형.55</title>
			<desc>Divide</desc>
			<v:userDefs>
				<v:ud v:nameU="CTypeTopLeftSnip" v:prompt="" v:val="VT0(0):5"/>
				<v:ud v:nameU="CTypeTopRightSnip" v:prompt="" v:val="VT0(0):5"/>
				<v:ud v:nameU="CTypeBotLeftSnip" v:prompt="" v:val="VT0(0):5"/>
				<v:ud v:nameU="CTypeBotRightSnip" v:prompt="" v:val="VT0(0):5"/>
				<v:ud v:nameU="CornerLockHoriz" v:prompt="" v:val="VT0(1):5"/>
				<v:ud v:nameU="CornerLockVert" v:prompt="" v:val="VT0(1):5"/>
				<v:ud v:nameU="CornerLockDiag" v:prompt="" v:val="VT0(0):5"/>
				<v:ud v:nameU="TopLeftOffset" v:prompt="" v:val="VT0(0.15748031496063):24"/>
				<v:ud v:nameU="TopRightOffset" v:prompt="" v:val="VT0(0.15748031496063):24"/>
				<v:ud v:nameU="BotLeftOffset" v:prompt="" v:val="VT0(0.15748031496063):24"/>
				<v:ud v:nameU="BotRightOffset" v:prompt="" v:val="VT0(0.15748031496063):24"/>
				<v:ud v:nameU="visVersion" v:prompt="" v:val="VT0(15):26"/>
				<v:ud v:nameU="TopLeftOffset" v:prompt="" v:val="VT0(0.11811023622047):1"/>
				<v:ud v:nameU="TopRightOffset" v:prompt="" v:val="VT0(0.11811023622047):1"/>
				<v:ud v:nameU="BotLeftOffset" v:prompt="" v:val="VT0(0.11811023622047):1"/>
				<v:ud v:nameU="BotRightOffset" v:prompt="" v:val="VT0(0.11811023622047):1"/>
			</v:userDefs>
			<v:textBlock v:margins="rect(4,4,4,4)" v:tabSpace="42.5197"/>
			<v:textRect cx="42.5197" cy="401.792" width="85.04" height="28.3465"/>
			<path d="M8.5 415.97 L76.54 415.97 A8.5038 8.5038 -180 0 0 85.04 407.46 L85.04 396.12 A8.5038 8.5038 -180 0 0 76.54 387.62
						 L8.5 387.62 A8.5038 8.5038 -180 0 0 0 396.12 L0 407.46 A8.5038 8.5038 -180 0 0 8.5 415.97 Z" class="st1"/>
			<text x="28.35" y="404.79" class="st2" v:langID="1042"><v:paragraph v:horizAlign="1"/><v:tabList/>Divide</text>		</g>
		<g id="shape56-58" v:mID="56" v:groupContext="shape" v:layerMember="0" transform="translate(468.092,-305.099)">
			<title>동적 연결선.56</title>
			<path d="M0 408.88 L-22.62 408.88" class="st3"/>
		</g>
		<g id="shape57-63" v:mID="57" v:groupContext="shape" v:layerMember="0" transform="translate(468.092,-220.06)">
			<title>동적 연결선.57</title>
			<path d="M0 408.88 L-22.62 408.88" class="st3"/>
		</g>
		<g id="shape63-68" v:mID="63" v:groupContext="shape" v:layerMember="0" transform="translate(468.092,-269.666)">
			<title>동적 연결선.63</title>
			<path d="M0 415.97 L-10.63 415.97 L-10.63 373.45 L-22.62 373.45" class="st3"/>
		</g>
		<g id="shape64-73" v:mID="64" v:groupContext="shape" v:layerMember="0" transform="translate(468.092,-170.454)">
			<title>동적 연결선.64</title>
			<path d="M0 415.97 L-127.56 415.97 L-127.56 274.23 L-141.73 274.23" class="st5"/>
		</g>
		<g id="shape65-76" v:mID="65" v:groupContext="shape" v:layerMember="0" transform="translate(468.092,-127.934)">
			<title>동적 연결선.65</title>
			<path d="M0 415.97 L-127.56 415.97 L-127.56 231.71 L-141.73 231.71" class="st5"/>
		</g>
		<g id="shape66-79" v:mID="66" v:groupContext="shape" v:layerMember="0" transform="translate(468.092,-85.4144)">
			<title>동적 연결선.66</title>
			<path d="M0 415.97 L-127.56 415.97 L-127.56 189.19 L-141.73 189.19" class="st5"/>
		</g>
		<g id="shape67-82" v:mID="67" v:groupContext="shape" v:layerMember="0" transform="translate(468.092,-42.8947)">
			<title>동적 연결선.67</title>
			<path d="M0 415.97 L-127.56 415.97 L-127.56 146.67 L-141.73 146.67" class="st5"/>
		</g>
		<g id="shape70-85" v:mID="70" v:groupContext="shape" transform="translate(416.341,61.2598) rotate(90)">
			<title>시트.70</title>
			<path d="M0 415.97 L354.33 415.97" class="st6"/>
		</g>
		<g id="shape71-88" v:mID="71" v:groupContext="shape" transform="translate(869.884,61.2598) rotate(90)">
			<title>시트.71</title>
			<path d="M0 415.97 L354.33 415.97" class="st6"/>
		</g>
		<g id="shape72-91" v:mID="72" v:groupContext="shape" transform="translate(983.27,61.2598) rotate(90)">
			<title>시트.72</title>
			<path d="M0 415.97 L354.33 415.97" class="st6"/>
		</g>
		<g id="shape74-94" v:mID="74" v:groupContext="shape" transform="translate(0.375,463.052) scale(1,-1)">
			<title>측면 중괄호</title>
			<v:userDefs>
				<v:ud v:nameU="TxtW" v:val="VT0(0.55555555555556):29"/>
				<v:ud v:nameU="TxtA" v:val="VT0(1.5707963267949):37"/>
				<v:ud v:nameU="TxtAState" v:val="VT0(0):26"/>
				<v:ud v:nameU="TxtWState" v:val="VT0(0):26"/>
				<v:ud v:nameU="MaxRadius" v:val="VT0(0.19685039370079):24"/>
				<v:ud v:nameU="PosCH1" v:prompt="Constrains X postion of Control Handle #1" v:val="VT0(0):26"/>
				<v:ud v:nameU="PosCH2" v:prompt="Constrains Y postion of Control Handle #2" v:val="VT0(0):26"/>
				<v:ud v:nameU="Scale" v:val="VT0(1):26"/>
				<v:ud v:nameU="AntiScale" v:val="VT0(1):26"/>
				<v:ud v:nameU="visVersion" v:val="VT0(15):26"/>
			</v:userDefs>
			<path d="M0 401.79 L0 408.88 A7.0865 7.0865 -180 0 0 7.09 415.97 L219.69 415.97 A7.0865 7.0865 0 0 1 226.77 423.05 A7.0865
						 7.0865 0 0 1 233.86 415.97 L446.46 415.97 A7.0865 7.0865 -180 0 0 453.54 408.88 L453.54 401.79"
					class="st7"/>
		</g>
		<g id="shape75-97" v:mID="75" v:groupContext="shape" transform="translate(453.918,463.052) scale(1,-1)">
			<title>측면 중괄호.75</title>
			<v:userDefs>
				<v:ud v:nameU="TxtW" v:val="VT0(0.55555555555556):29"/>
				<v:ud v:nameU="TxtA" v:val="VT0(1.5707963267949):37"/>
				<v:ud v:nameU="TxtAState" v:val="VT0(0):26"/>
				<v:ud v:nameU="TxtWState" v:val="VT0(0):26"/>
				<v:ud v:nameU="MaxRadius" v:val="VT0(0.19685039370079):24"/>
				<v:ud v:nameU="PosCH1" v:prompt="Constrains X postion of Control Handle #1" v:val="VT0(0):26"/>
				<v:ud v:nameU="PosCH2" v:prompt="Constrains Y postion of Control Handle #2" v:val="VT0(0):26"/>
				<v:ud v:nameU="Scale" v:val="VT0(1):26"/>
				<v:ud v:nameU="AntiScale" v:val="VT0(1):26"/>
				<v:ud v:nameU="visVersion" v:val="VT0(15):26"/>
			</v:userDefs>
			<path d="M0 401.79 L0 408.88 A7.0865 7.0865 -180 0 0 7.09 415.97 L49.61 415.97 A7.0865 7.0865 0 0 1 56.69 423.05 A7.0865
						 7.0865 0 0 1 63.78 415.97 L106.3 415.97 A7.0865 7.0865 -180 0 0 113.39 408.88 L113.39 401.79" class="st7"/>
		</g>
		<g id="shape76-100" v:mID="76" v:groupContext="shape" transform="translate(184.627,-375.966)">
			<title>시트.76</title>
			<desc>Abstract Class</desc>
			<v:textBlock v:margins="rect(4,4,4,4)" v:tabSpace="42.5197"/>
			<v:textRect cx="42.5197" cy="408.879" width="85.04" height="14.1732"/>
			<rect x="0" y="401.792" width="85.0394" height="14.1732" class="st8"/>
			<text x="4.44" y="412.48" class="st9" v:langID="1042"><v:paragraph v:horizAlign="1"/><v:tabList/>Abstract Class</text>		</g>
		<g id="shape77-103" v:mID="77" v:groupContext="shape" transform="translate(468.092,-375.966)">
			<title>시트.77</title>
			<desc>Class</desc>
			<v:textBlock v:margins="rect(4,4,4,4)" v:tabSpace="42.5197"/>
			<v:textRect cx="42.5197" cy="408.879" width="85.04" height="14.1732"/>
			<rect x="0" y="401.792" width="85.0394" height="14.1732" class="st8"/>
			<text x="28.92" y="412.48" class="st9" v:langID="1042"><v:paragraph v:horizAlign="1"/><v:tabList/>Class</text>		</g>
	</g>
</svg>
